<svg width="206" height="43" fill="none" xmlns="http://www.w3.org/2000/svg"><path fill-rule="evenodd" clip-rule="evenodd" d="M206 15.756c-2.323-3.898-6.154-5.95-11.413-5.95-7.094 0-12.598 4.463-12.598 11.659 0 7.194 5.382 11.656 12.598 11.656 5.259 0 9.09-2.051 11.413-5.95l-3.954-2.25c-1.712 2.41-3.953 3.738-7.541 3.738-4.403 0-7.46-2.894-7.46-7.194 0-4.382 2.935-7.196 7.46-7.196 3.588 0 5.829 1.327 7.541 3.738L206 15.756Zm-46.635 5.709c0-4.584 2.487-7.357 7.256-7.357 4.77 0 7.257 2.773 7.257 7.357 0 4.581-2.487 7.354-7.257 7.354-4.769 0-7.256-2.773-7.256-7.354Zm-13.412-11.136v22.23h5.014v-9.407h3.424c.775 6.39 5.952 9.969 12.23 9.969 6.807 0 12.311-4.22 12.311-11.656 0-7.438-5.504-11.658-12.311-11.658-5.911 0-10.843 3.176-12.027 8.843h-3.627V10.33h-5.014Zm-22.87 0-3.016 15.919c-.245 1.205-1.02 1.727-2.202 1.727h-2.445v4.584h2.69c3.709 0 6.196-1.73 6.929-5.669l2.284-12.058h8.641V32.56h5.097v-22.23h-17.978Zm-9.255 11.136c0-6.995-5.789-11.658-12.636-11.658-6.849 0-12.636 4.663-12.636 11.658 0 6.992 5.787 11.656 12.636 11.656 6.847 0 12.636-4.664 12.636-11.656Zm-20.177 0c0-4.584 3.302-7.357 7.541-7.357 4.24 0 7.542 2.773 7.542 7.357 0 4.581-3.302 7.354-7.542 7.354s-7.541-2.773-7.541-7.354ZM62.588 10.329v22.23h5.054V14.792h12.066v17.767h5.097v-22.23H62.588Z" fill="#fff"/><path fill-rule="evenodd" clip-rule="evenodd" d="m43.928 18.697-15.932 2.375c-.38.057-.667-.274-.645-.652l.466-8.453c.058-1.047.66-1.585 1.477-1.707l10.198-1.52c.818-.123 1.55.215 1.916 1.2l2.945 7.943c.132.357-.046.758-.425.814ZM32.31 41.103l-7.298-14.269c-.172-.34.053-.714.422-.815l8.222-2.226c1.018-.276 1.723.122 2.098.854l4.669 9.131c.375.733.282 1.53-.543 2.186l-6.66 5.282c-.298.237-.738.197-.91-.143ZM7.045 37.027l11.473-11.236c.272-.267.702-.166.91.152l4.631 7.106c.572.88.405 1.666-.183 2.243l-7.343 7.192c-.588.576-1.382.73-2.262.148l-7.086-4.7c-.318-.211-.412-.638-.14-.905Zm-3.83-25.01 14.315 7.347c.339.174.376.611.136.905L12.3 26.848c-.661.814-1.467.901-2.203.523l-9.16-4.7c-.736-.378-1.13-1.08-.845-2.09l2.298-8.152c.103-.366.483-.587.824-.412ZM26.039.651 23.394 16.44c-.063.375-.47.544-.826.406l-7.95-3.052c-.986-.376-1.314-1.112-1.178-1.921l1.694-10.104c.134-.81.685-1.398 1.74-1.438L25.391 0c.38-.014.71.276.647.651Z" fill="#FAB529"/></svg>