<svg width="159" height="43" fill="none" xmlns="http://www.w3.org/2000/svg"><g clip-path="url(#a)" fill="#fff"><path d="M46.455 26.291h10.963v2.455h-3.943v10.532h-2.998V28.746h-3.943V26.29h-.079ZM62.15 29.3c3.235 0 4.89 1.663 4.89 5.623v.316h-7.098c.237 1.584 1.105 2.218 2.367 2.218.946 0 1.498-.396 1.892-1.03l2.761.159c-.552 1.821-2.13 2.93-4.653 2.93-3.155 0-5.364-1.584-5.364-5.069 0-3.563 2.209-5.147 5.206-5.147Zm2.051 4.118c-.078-1.267-.788-2.059-2.05-2.059-1.183 0-2.05.634-2.287 2.06H64.2ZM68.775 29.538h2.682V31.2a3.672 3.672 0 0 1 3.234-1.9c2.366 0 4.18 1.9 4.18 5.067 0 3.168-1.814 5.069-4.18 5.069-1.183 0-2.288-.476-2.997-1.584v5.068h-2.919V29.538Zm4.97 7.681c1.419 0 2.208-1.188 2.208-2.85 0-1.664-.868-2.852-2.209-2.852-1.42 0-2.208 1.188-2.208 2.851 0 1.742.867 2.851 2.208 2.851ZM80.607 29.538h2.682V31.2a3.672 3.672 0 0 1 3.234-1.9c2.366 0 4.18 1.9 4.18 5.067 0 3.168-1.814 5.069-4.18 5.069-1.183 0-2.287-.476-2.997-1.584v5.068h-2.919V29.538Zm5.048 7.681c1.42 0 2.209-1.188 2.209-2.85 0-1.664-.868-2.852-2.209-2.852-1.42 0-2.208 1.188-2.208 2.851-.08 1.742.788 2.851 2.208 2.851ZM102.453 29.538v9.74h-2.76v-7.444l-2.918 7.444h-4.26v-9.74h2.761v7.444l2.918-7.444h4.259ZM103.874 29.538h9.307v2.375h-3.234v7.365h-2.918v-7.365h-3.234v-2.375h.079ZM119.174 29.3c3.155 0 5.127 1.98 5.127 5.068 0 3.089-1.972 5.069-5.127 5.069s-5.205-1.98-5.205-5.069c0-3.088 2.05-5.068 5.205-5.068Zm0 7.92c1.42 0 2.288-1.189 2.288-2.852 0-1.663-.868-2.85-2.288-2.85-1.419 0-2.287 1.187-2.287 2.85s.868 2.851 2.287 2.851ZM126.115 29.538h2.682V31.2a3.672 3.672 0 0 1 3.234-1.9c2.366 0 4.18 1.9 4.18 5.067 0 3.168-1.814 5.069-4.18 5.069-1.183 0-2.288-.476-2.997-1.584v5.068h-2.919V29.538Zm4.969 7.681c1.42 0 2.209-1.188 2.209-2.85 0-1.664-.868-2.852-2.209-2.852-1.42 0-2.208 1.188-2.208 2.851 0 1.742.788 2.851 2.208 2.851ZM147.885 29.538v9.74h-2.76v-7.444l-2.919 7.444h-4.259v-9.74h2.761v7.444l2.918-7.444h4.259ZM158.769 29.538v9.74h-2.918v-3.563h-1.025l-2.13 3.563h-3.391l2.76-3.722c-1.577-.396-2.366-1.346-2.366-2.93 0-2.059 1.42-3.088 4.101-3.088h4.969Zm-2.918 2.217h-1.656c-1.026 0-1.578.396-1.578 1.109 0 .712.552 1.108 1.578 1.108h1.656v-2.217ZM0 0v14.175h16.09v25.182h14.118V14.175h16.09V0H0Z"/></g><defs><clipPath id="a"><path fill="#fff" d="M0 0h158.769v43H0z"/></clipPath></defs></svg>