<svg width="242" height="44" viewBox="0 0 242 44" fill="none" xmlns="http://www.w3.org/2000/svg">
<g clip-path="url(#clip0_343_59)">
<path d="M65.7085 7.13065L65.7284 19.6016L62.8344 19.6063L62.8186 9.67935L56.066 9.69013L56.0818 19.617L53.1879 19.6216L53.168 7.15067L65.7085 7.13065Z" fill="white"/>
<path d="M82.1171 13.34C82.1187 14.3377 81.917 15.186 81.5629 16.0346C81.158 16.8334 80.6514 17.5326 80.0431 18.0823C79.3839 18.6321 78.623 19.0822 77.7605 19.4328C76.8979 19.7335 75.9843 19.9345 75.0196 19.936C74.055 19.9375 73.1409 19.7893 72.2772 19.4415C71.4136 19.1436 70.6513 18.6959 69.9903 18.0983C69.3294 17.5506 68.8206 16.8531 68.4639 16.0555C68.0565 15.258 67.9027 14.3603 67.9011 13.3627C67.8995 12.365 68.1013 11.5166 68.4553 10.668C68.8602 9.86925 69.3668 9.17006 69.9752 8.62037C70.6344 8.07059 71.3952 7.62042 72.2578 7.26986C73.1204 6.96918 74.034 6.76818 74.9986 6.76664C75.9633 6.7651 76.8774 6.9133 77.7411 7.26111C78.6047 7.55903 79.3669 8.00677 80.0279 8.60433C80.6888 9.152 81.1977 9.84956 81.5543 10.6471C81.9111 11.4946 82.1156 12.3922 82.1171 13.34ZM70.7443 13.3581C70.7454 14.0066 70.8479 14.6051 71.1025 15.1035C71.3064 15.602 71.6117 16.0505 72.0185 16.399C72.3744 16.7476 72.8318 17.0462 73.3398 17.1951C73.8478 17.3938 74.4065 17.4927 75.0157 17.4917C75.625 17.4907 76.1833 17.3901 76.6907 17.1897C77.1981 16.9894 77.6546 16.7392 78.0095 16.3895C78.3643 16.0397 78.6682 15.5903 78.9213 15.091C79.1236 14.5919 79.275 13.993 79.2739 13.3445C79.2729 12.696 79.1704 12.0976 78.9157 11.5991C78.7118 11.1006 78.4065 10.6522 77.9998 10.3036C77.6438 9.955 77.1864 9.65643 76.6784 9.50758C76.1704 9.30886 75.6118 9.20998 75.0025 9.21096C74.3933 9.21193 73.8349 9.31259 73.3275 9.51293C72.8201 9.71328 72.3636 9.96343 72.0088 10.3132C71.6539 10.6629 71.35 11.1124 71.0969 11.6116C70.844 12.1608 70.7434 12.7595 70.7443 13.3581Z" fill="white"/>
<path d="M97.4405 7.08002L97.4604 19.551L94.5665 19.5556L94.5506 9.62872L89.6766 9.6365L88.4181 16.4227C88.2168 17.5205 87.7612 18.3693 87.102 18.8692C86.4427 19.369 85.58 19.6198 84.5138 19.6215L82.9907 19.624L82.9865 17.03L84.3574 17.0278C85.0682 17.0267 85.4739 16.7267 85.5744 16.0781L87.2356 7.14619L97.4406 7.12991L97.4405 7.08002Z" fill="white"/>
<path d="M102.568 7.07184L102.576 11.7609L104.607 11.7577C104.758 10.9593 105.061 10.2604 105.466 9.6113C105.872 9.01204 106.378 8.46251 106.987 8.06247C107.596 7.66242 108.255 7.31218 109.016 7.11143C109.778 6.91068 110.539 6.75981 111.402 6.75844C112.367 6.7569 113.281 6.90509 114.094 7.2031C114.957 7.50102 115.669 7.89896 116.279 8.4966C116.889 9.04435 117.398 9.74191 117.754 10.5395C118.111 11.3371 118.316 12.2845 118.317 13.3321C118.319 14.3797 118.117 15.2779 117.763 16.1265C117.409 16.9252 116.903 17.6244 116.294 18.1741C115.686 18.7238 114.925 19.1739 114.113 19.4745C113.251 19.7752 112.388 19.9263 111.423 19.9278C110.509 19.9293 109.697 19.8308 108.884 19.5827C108.071 19.3345 107.411 18.9864 106.801 18.4885C106.19 17.9907 105.682 17.4428 105.275 16.745C104.867 16.0473 104.612 15.2496 104.509 14.3518L102.58 14.3549L102.588 19.6426L99.7451 19.6471L99.7252 7.17614L102.568 7.1716L102.568 7.07184ZM107.3 13.2998C107.302 14.5968 107.659 15.5939 108.32 16.3411C109.032 17.0882 110.048 17.4358 111.368 17.4337C112.739 17.4315 113.754 17.0807 114.413 16.3314C115.122 15.582 115.425 14.5838 115.423 13.2868C115.421 11.9898 115.064 10.9927 114.403 10.2455C113.691 9.49841 112.675 9.15084 111.355 9.15295C109.984 9.15513 108.969 9.50594 108.311 10.2553C107.652 11.0046 107.298 12.0527 107.3 13.2998Z" fill="white"/>
<path d="M131.363 11.3658C130.854 10.6682 130.295 10.1703 129.634 9.82216C128.973 9.47403 128.11 9.27587 127.095 9.27749C126.435 9.27854 125.876 9.3792 125.369 9.57955C124.861 9.77989 124.405 10.03 124.05 10.3798C123.695 10.7296 123.391 11.179 123.189 11.6283C122.987 12.1274 122.886 12.6763 122.887 13.2749C122.888 13.8735 122.99 14.4221 123.194 14.9206C123.398 15.4191 123.703 15.8177 124.059 16.1663C124.415 16.515 124.873 16.8135 125.381 16.9624C125.889 17.1611 126.447 17.26 127.107 17.2589C128.123 17.2573 128.935 17.0565 129.645 16.7061C130.304 16.3559 130.862 15.8063 131.369 15.157L133.605 16.4005C132.946 17.499 132.085 18.3484 131.019 18.8988C129.954 19.4493 128.685 19.7506 127.162 19.753C126.147 19.7547 125.233 19.6065 124.318 19.3086C123.455 19.0107 122.692 18.5629 122.082 18.0152C121.472 17.4674 120.963 16.7699 120.606 15.9723C120.25 15.1747 120.045 14.2273 120.044 13.2296C120.042 12.2319 120.244 11.3337 120.598 10.4851C120.952 9.68636 121.458 8.98718 122.118 8.4374C122.777 7.88763 123.487 7.43754 124.349 7.13685C125.212 6.83617 126.126 6.68506 127.141 6.68344C128.614 6.68109 129.883 6.97837 131.001 7.52531C132.068 8.07234 132.933 8.91898 133.594 10.0154L131.363 11.3658Z" fill="white"/>
<path d="M137.361 15.8458C137.919 15.8449 138.427 16.0436 138.783 16.4421C139.19 16.8406 139.394 17.2892 139.395 17.8379C139.396 18.3866 139.193 18.8359 138.788 19.2356C138.382 19.5855 137.926 19.7857 137.367 19.7866C136.809 19.7875 136.301 19.5888 135.945 19.2402C135.538 18.8916 135.334 18.443 135.333 17.8444C135.332 17.2957 135.535 16.7965 135.94 16.4467C136.346 15.9971 136.802 15.8467 137.361 15.8458Z" fill="white"/>
<path d="M61.8382 31.5302C62.549 31.529 62.9038 31.1793 62.9028 30.5308C62.902 30.0319 62.6476 29.6831 62.0887 29.4346C61.5298 29.1861 60.7173 29.0876 59.6003 29.0894C59.0418 29.0903 58.5341 29.0911 58.0773 29.1417C57.6204 29.1923 57.2143 29.2429 56.8591 29.3432C56.4531 29.4436 56.0979 29.5938 55.7427 29.744C55.3876 29.8943 54.9818 30.1443 54.5759 30.3445L53.3542 28.3511C54.3686 27.6511 55.3833 27.2005 56.3475 26.9496C57.3118 26.6986 58.3778 26.5971 59.5456 26.5953C60.561 26.5937 61.475 26.692 62.2876 26.8403C63.1002 26.9887 63.8115 27.2869 64.3198 27.6851C65.2855 28.3321 65.7439 29.2293 65.7458 30.4265C65.7464 30.8255 65.6455 31.2248 65.4937 31.5243C65.3419 31.8737 65.0885 32.1236 64.7842 32.3735C65.9529 32.9702 66.5638 33.9669 66.566 35.3637C66.5671 36.0122 66.4156 36.5611 66.1118 37.0605C65.808 37.5598 65.4025 38.0094 64.8447 38.4592C64.2362 38.9092 63.4751 39.2097 62.6123 39.4106C61.6987 39.6116 60.6835 39.713 59.5665 39.7148C58.8557 39.7159 58.2464 39.667 57.637 39.6181C57.0277 39.5692 56.469 39.4204 55.961 39.2716C55.4023 39.1228 54.8943 38.9241 54.3862 38.6755C53.878 38.4268 53.3699 38.1284 52.8616 37.78L54.1783 35.6827C54.9914 36.1803 55.8551 36.5281 56.7187 36.826C57.633 37.074 58.5979 37.2221 59.7148 37.2203C60.9333 37.2184 61.8978 37.0672 62.6589 36.7667C63.3692 36.4662 63.7238 35.9668 63.7227 35.2684C63.722 34.8694 63.5692 34.5204 63.315 34.3213C63.0608 34.1222 62.5529 34.0232 61.8421 34.0243L56.765 34.0324L56.761 31.5383L61.8382 31.5302Z" fill="white"/>
<path d="M82.5566 33.0934C82.5582 34.091 82.3564 34.9394 82.0024 35.788C81.5975 36.5868 81.0909 37.286 80.4825 37.8357C79.8233 38.3854 79.0625 38.8356 78.1999 39.1862C77.3373 39.4869 76.4237 39.6878 75.4591 39.6894C74.4944 39.6909 73.5803 39.5427 72.7166 39.1949C71.853 38.897 71.0908 38.4493 70.4298 37.8517C69.7689 37.304 69.26 36.6065 68.9034 35.8089C68.4959 35.0114 68.3422 34.1137 68.3406 33.116C68.339 32.1184 68.5407 31.27 68.8948 30.4214C69.2997 29.6226 69.8063 28.9234 70.4147 28.3738C71.0738 27.824 71.8347 27.3738 72.6972 27.0232C73.5598 26.7226 74.4734 26.5216 75.4381 26.52C76.4027 26.5185 77.3168 26.6667 78.1805 27.0145C79.0441 27.3124 79.8064 27.7602 80.4674 28.3577C81.1283 28.9054 81.6371 29.6029 81.9938 30.4005C82.3504 31.1981 82.555 32.0957 82.5566 33.0934ZM71.1838 33.1115C71.1848 33.76 71.2873 34.3584 71.542 34.8569C71.7458 35.3554 72.0512 35.8039 72.4579 36.1524C72.8139 36.501 73.2713 36.7996 73.7792 36.9484C74.2873 37.1472 74.8459 37.246 75.4552 37.2451C76.0644 37.2441 76.6228 37.1434 77.1302 36.9431C77.6376 36.7428 78.0941 36.4926 78.4489 36.1428C78.8038 35.7931 79.1077 35.3437 79.3608 34.8444C79.563 34.3452 79.7144 33.7464 79.7134 33.0979C79.7123 32.4494 79.6098 31.851 79.3552 31.3525C79.1513 30.854 78.846 30.4055 78.4392 30.057C78.0833 29.7084 77.6259 29.4098 77.1179 29.261C76.6099 29.0622 76.0512 28.9634 75.442 28.9643C74.8327 28.9653 74.2744 29.066 73.767 29.2663C73.2596 29.4667 72.8031 29.7168 72.4482 30.0666C72.0934 30.4163 71.7895 30.8658 71.5364 31.365C71.2833 31.8643 71.1827 32.463 71.1838 33.1115Z" fill="white"/>
<path d="M97.878 26.7835L97.8979 39.2545L95.004 39.2591L94.9881 29.3322L90.1141 29.34L88.9064 36.1262C88.7051 37.2239 88.2495 38.0727 87.5902 38.5726C86.931 39.0725 86.0683 39.3233 85.0021 39.325L83.479 39.3274L83.4748 36.7334L84.8456 36.7313C85.5564 36.7301 85.9621 36.4302 86.0626 35.7815L87.7239 26.8496L97.8781 26.8334L97.878 26.7835Z" fill="white"/>
<path d="M114.236 33.0428C114.238 34.0405 114.036 34.8888 113.682 35.7374C113.277 36.5362 112.771 37.2354 112.162 37.7851C111.503 38.3349 110.742 38.7851 109.88 39.1356C109.017 39.4363 108.103 39.6373 107.139 39.6388C106.174 39.6404 105.26 39.4922 104.396 39.1444C103.533 38.8464 102.77 38.3987 102.109 37.8011C101.449 37.2535 100.94 36.5559 100.583 35.7583C100.176 34.9608 100.022 34.0632 100.02 33.0655C100.019 32.0678 100.22 31.2195 100.574 30.3709C100.979 29.5721 101.486 28.8729 102.094 28.3232C102.753 27.7734 103.514 27.3233 104.377 26.9727C105.24 26.672 106.153 26.471 107.118 26.4695C108.082 26.4679 108.997 26.6161 109.86 26.9639C110.724 27.2619 111.486 27.7096 112.147 28.3072C112.808 28.8548 113.317 29.5524 113.673 30.35C114.081 31.1475 114.235 32.0451 114.236 33.0428ZM102.863 33.061C102.865 33.7095 102.967 34.3079 103.222 34.8063C103.426 35.3048 103.731 35.7533 104.138 36.1019C104.494 36.4505 104.951 36.7491 105.459 36.8979C105.967 37.0966 106.526 37.1955 107.135 37.1945C107.744 37.1936 108.302 37.0929 108.81 36.8925C109.317 36.6922 109.774 36.442 110.129 36.0923C110.483 35.7425 110.787 35.2931 111.04 34.7939C111.243 34.2947 111.394 33.6958 111.393 33.0473C111.392 32.3989 111.29 31.8004 111.035 31.302C110.831 30.8035 110.526 30.355 110.119 30.0065C109.763 29.6578 109.306 29.3593 108.798 29.2104C108.29 29.0117 107.731 28.9128 107.122 28.9138C106.512 28.9148 105.954 29.0154 105.447 29.2158C104.939 29.4161 104.483 29.6663 104.128 30.016C103.773 30.3658 103.469 30.8152 103.216 31.3145C103.014 31.8136 102.862 32.4125 102.863 33.061Z" fill="white"/>
<path d="M128.646 26.7344L128.65 29.2785L123.471 29.2868L123.487 39.2137L120.593 39.2183L120.577 29.2914L115.399 29.2997L115.395 26.7556L128.646 26.7344Z" fill="white"/>
<path d="M144.09 32.9952C144.091 33.9929 143.89 34.8412 143.536 35.6898C143.131 36.4886 142.624 37.1878 142.016 37.7375C141.357 38.2872 140.596 38.7374 139.733 39.088C138.871 39.3887 137.957 39.5897 136.992 39.5912C136.028 39.5927 135.114 39.4445 134.25 39.0967C133.386 38.7988 132.624 38.3511 131.963 37.7535C131.302 37.2058 130.793 36.5083 130.437 35.7107C130.029 34.9132 129.875 34.0155 129.874 33.0179C129.872 32.0202 130.074 31.1718 130.428 30.3232C130.833 29.5244 131.339 28.8253 131.948 28.2756C132.607 27.7258 133.368 27.2756 134.23 26.9251C135.093 26.6244 136.007 26.4234 136.971 26.4218C137.936 26.4203 138.85 26.5685 139.714 26.9163C140.577 27.2142 141.34 27.662 142.001 28.2595C142.661 28.8072 143.17 29.5048 143.527 30.3023C143.884 31.0999 144.088 31.9975 144.09 32.9952ZM132.717 33.0133C132.718 33.6618 132.821 34.2603 133.075 34.7587C133.279 35.2572 133.584 35.7057 133.991 36.0542C134.347 36.4028 134.804 36.7014 135.312 36.8503C135.82 37.049 136.379 37.1479 136.988 37.1469C137.598 37.1459 138.156 37.0453 138.663 36.8449C139.171 36.6446 139.627 36.3944 139.982 36.0447C140.337 35.6949 140.641 35.2455 140.894 34.7462C141.096 34.2471 141.248 33.6482 141.247 32.9997C141.246 32.3512 141.143 31.7528 140.888 31.2543C140.685 30.7558 140.379 30.3074 139.972 29.9588C139.616 29.6102 139.159 29.3116 138.651 29.1628C138.143 28.9641 137.584 28.8652 136.975 28.8662C136.366 28.8671 135.808 28.9678 135.3 29.1681C134.793 29.3685 134.336 29.6186 133.981 29.9684C133.627 30.3181 133.323 30.7676 133.07 31.2668C132.817 31.7661 132.716 32.3648 132.717 33.0133Z" fill="white"/>
<path d="M149.057 26.7019L149.071 35.3817L156.622 26.6898L159.414 26.6853L159.434 39.1563L156.54 39.1609L156.527 30.5809L149.026 39.2228L146.234 39.2273L146.214 26.7064L149.057 26.7019ZM156.465 23.9464C155.755 24.596 155.147 24.9961 154.538 25.1966C153.929 25.3971 153.32 25.4978 152.609 25.499C151.949 25.5 151.289 25.4013 150.679 25.2027C150.07 25.0042 149.46 24.6061 148.748 23.9587L150.116 22.46C150.472 22.7588 150.828 22.9577 151.184 23.1068C151.539 23.2559 151.996 23.3051 152.555 23.3042C153.113 23.3033 153.57 23.2527 153.925 23.1024C154.28 22.9522 154.636 22.7521 154.99 22.4522L156.465 23.9464Z" fill="white"/>
<path d="M179.374 30.9934C178.866 30.2958 178.306 29.7979 177.646 29.4497C176.985 29.1016 176.122 28.9035 175.106 28.9051C174.446 28.9061 173.888 29.0068 173.381 29.2071C172.873 29.4075 172.417 29.6576 172.062 30.0074C171.707 30.3571 171.403 30.8066 171.201 31.2559C170.998 31.755 170.898 32.3039 170.899 32.9025C170.9 33.5011 171.002 34.0497 171.206 34.5482C171.41 35.0467 171.715 35.4453 172.071 35.7939C172.427 36.1425 172.884 36.4411 173.392 36.59C173.9 36.7887 174.459 36.8876 175.119 36.8865C176.134 36.8849 176.946 36.6841 177.657 36.3337C178.316 35.9835 178.874 35.4339 179.38 34.7846L181.616 36.0281C180.958 37.1266 180.096 37.976 179.031 38.5264C177.966 39.0769 176.697 39.3782 175.174 39.3806C174.158 39.3822 173.244 39.234 172.33 38.9362C171.466 38.6383 170.704 38.1905 170.094 37.6428C169.484 37.095 168.975 36.3975 168.618 35.5999C168.262 34.8023 168.057 33.8548 168.055 32.8572C168.054 31.8595 168.255 30.9613 168.609 30.1127C168.964 29.314 169.47 28.6148 170.129 28.065C170.788 27.5152 171.499 27.0651 172.361 26.7644C173.224 26.4638 174.137 26.3127 175.153 26.311C176.625 26.3087 177.895 26.606 179.013 27.1529C180.08 27.6999 180.944 28.5466 181.606 29.643L179.374 30.9934Z" fill="white"/>
<path d="M195.156 26.6283L195.16 29.1724L186.478 29.1862L186.482 31.5308L194.25 31.5184L194.254 34.0625L186.486 34.0749L186.49 36.5691L195.476 36.5547L195.481 39.1487L183.651 39.1676L183.631 26.6467L195.156 26.6283Z" fill="white"/>
<path d="M206.182 31.2998C206.893 31.2987 207.248 30.9489 207.247 30.3004C207.246 29.8016 206.991 29.4528 206.433 29.2043C205.874 28.9558 205.061 28.8573 203.944 28.8591C203.386 28.86 202.878 28.8608 202.421 28.9114C201.964 28.962 201.558 29.0125 201.203 29.1129C200.797 29.2133 200.442 29.3635 200.087 29.5137C199.731 29.6639 199.326 29.914 198.92 30.1142L197.698 28.0709C198.712 27.3709 199.727 26.9203 200.691 26.6694C201.656 26.4184 202.722 26.3169 203.889 26.3151C204.905 26.3134 205.819 26.4118 206.631 26.5601C207.444 26.7085 208.155 27.0066 208.664 27.4049C209.629 28.0518 210.088 28.949 210.09 30.1462C210.09 30.5453 209.989 30.9445 209.837 31.2441C209.686 31.5935 209.432 31.8434 209.128 32.0933C210.297 32.69 210.908 33.6867 210.91 35.0835C210.911 35.7319 210.759 36.2809 210.456 36.7802C210.152 37.2796 209.746 37.7292 209.188 38.179C208.58 38.6289 207.819 38.9295 206.956 39.1304C206.042 39.3314 205.027 39.4328 203.91 39.4345C203.199 39.4357 202.59 39.3868 201.981 39.3379C201.371 39.2889 200.813 39.1402 200.305 38.9913C199.746 38.8426 199.238 38.6439 198.73 38.3952C198.222 38.1466 197.714 37.8481 197.205 37.4998L198.522 35.4025C199.335 35.9001 200.199 36.2479 201.062 36.5458C201.977 36.7938 202.942 36.9419 204.059 36.9401C205.277 36.9382 206.242 36.787 207.003 36.4864C207.713 36.186 208.068 35.6866 208.066 34.9882C208.066 34.5892 207.913 34.2402 207.659 34.0411C207.405 33.8419 206.897 33.743 206.186 33.7441L201.109 33.7522L201.105 31.258L206.182 31.2499L206.182 31.2998Z" fill="white"/>
<path d="M226.898 32.863C226.9 33.8607 226.698 34.7091 226.344 35.5577C225.939 36.3565 225.433 37.0556 224.824 37.6053C224.165 38.1551 223.404 38.6053 222.542 38.9558C221.679 39.2565 220.766 39.4575 219.801 39.4591C218.836 39.4606 217.922 39.3124 217.058 38.9646C216.195 38.6667 215.433 38.2189 214.772 37.6214C214.111 37.0737 213.602 36.3761 213.245 35.5786C212.838 34.7811 212.684 33.8834 212.682 32.8857C212.681 31.888 212.883 31.0397 213.237 30.1911C213.641 29.3923 214.148 28.6931 214.756 28.1434C215.416 27.5937 216.176 27.1435 217.039 26.7929C217.902 26.4922 218.815 26.2912 219.78 26.2897C220.745 26.2882 221.659 26.4364 222.522 26.7842C223.386 27.0821 224.148 27.5298 224.809 28.1274C225.47 28.6751 225.979 29.3726 226.336 30.1702C226.692 30.9678 226.897 31.8654 226.898 32.863ZM215.526 32.8812C215.527 33.5297 215.629 34.1281 215.884 34.6266C216.088 35.1251 216.393 35.5735 216.8 35.9221C217.156 36.2707 217.613 36.5693 218.121 36.7181C218.629 36.9168 219.188 37.0157 219.797 37.0148C220.406 37.0138 220.965 36.9131 221.472 36.7128C221.979 36.5124 222.436 36.2623 222.791 35.9125C223.146 35.5628 223.449 35.1133 223.703 34.6141C223.905 34.1149 224.056 33.5161 224.055 32.8676C224.054 32.2191 223.952 31.6206 223.697 31.1222C223.493 30.6237 223.188 30.1752 222.781 29.8267C222.425 29.4781 221.968 29.1795 221.46 29.0306C220.952 28.8319 220.393 28.733 219.784 28.734C219.175 28.735 218.616 28.8356 218.109 29.036C217.601 29.2363 217.145 29.4865 216.79 29.8362C216.435 30.186 216.131 30.6354 215.878 31.1347C215.625 31.6339 215.525 32.2327 215.526 32.8812Z" fill="white"/>
<path d="M231.865 26.5697L231.872 31.3087L239.031 31.2973L239.023 26.5583L241.917 26.5537L241.937 39.0247L239.043 39.0293L239.035 33.8414L231.876 33.8528L231.885 39.0407L229.041 39.0452L229.021 26.5743L231.865 26.5697Z" fill="white"/>
<path d="M39.3144 43.1891C31.6442 40.8568 27.6222 33.9293 30.1511 27.8893C36.9052 28.8263 40.7233 35.2054 39.3144 43.1891Z" fill="#FAB529"/>
<path d="M22.3901 0.964268C25.4957 6.29691 24.9974 12.2339 21.1963 16.4801C20.4867 17.2295 19.1175 18.2294 18.6095 18.0306C17.6948 17.5333 16.9822 16.3871 16.7266 15.3399C15.0416 9.35651 16.862 4.71439 22.3901 0.964268Z" fill="#FAB529"/>
<path d="M9.00424 43.836C8.74123 38.0998 16.8026 31.0034 22.6443 32.8897C23.7713 39.1733 16.5203 45.0213 9.00424 43.836Z" fill="#FAB529"/>
<path d="M27.1423 19.6133C30.179 13.5725 39.0103 11.7127 44.7033 15.844C40.9556 21.7363 32.9366 23.5449 27.1423 19.6133Z" fill="#FAB529"/>
<path d="M0.0310259 19.906C6.6266 16.9523 14.857 20.3313 16.9476 25.9649C11.9784 29.9635 3.49478 26.984 0.0310259 19.906Z" fill="#FAB529"/>
</g>
<defs>
<clipPath id="clip0_343_59">
<rect width="241.875" height="43" fill="white" transform="translate(0 1) rotate(-0.091427)"/>
</clipPath>
</defs>
</svg>
