<svg width="242" height="44" fill="none" xmlns="http://www.w3.org/2000/svg"><g clip-path="url(#a)"><path d="m65.709 7.13.02 12.472-2.895.004-.015-9.927-6.753.011.016 9.927-2.894.005-.02-12.471 12.54-.02ZM82.117 13.34c.002.998-.2 1.846-.554 2.695-.405.798-.912 1.498-1.52 2.047-.66.55-1.42 1-2.283 1.35-.862.302-1.776.503-2.74.504-.965.002-1.88-.147-2.743-.494a6.562 6.562 0 0 1-2.287-1.344 5.585 5.585 0 0 1-1.526-2.043c-.407-.797-.561-1.695-.563-2.692-.001-.998.2-1.846.554-2.695.405-.799.912-1.498 1.52-2.048.66-.55 1.42-1 2.283-1.35.862-.3 1.776-.502 2.74-.503.965-.002 1.88.146 2.743.494a6.562 6.562 0 0 1 2.287 1.343 5.584 5.584 0 0 1 1.526 2.043c.357.848.562 1.745.563 2.693Zm-11.373.018c.001.649.104 1.247.359 1.745.203.499.509.947.916 1.296.355.349.813.647 1.32.796a4.543 4.543 0 0 0 1.677.297 4.542 4.542 0 0 0 1.675-.302c.507-.2.964-.45 1.319-.8.354-.35.658-.8.911-1.299.203-.5.354-1.098.353-1.746-.001-.649-.104-1.247-.358-1.746A3.375 3.375 0 0 0 78 10.304a3.225 3.225 0 0 0-1.322-.796 4.542 4.542 0 0 0-1.675-.297 4.543 4.543 0 0 0-1.675.302c-.508.2-.964.45-1.32.8-.354.35-.658.8-.911 1.299-.253.549-.354 1.147-.353 1.746ZM97.44 7.08l.02 12.471-2.893.005-.016-9.927-4.874.008-1.259 6.786c-.201 1.098-.657 1.946-1.316 2.446-.66.5-1.522.75-2.588.753l-1.523.002-.004-2.594 1.37-.002c.711-.001 1.117-.301 1.217-.95l1.662-8.932L97.44 7.13v-.05ZM102.568 7.072l.008 4.689 2.031-.003a6.17 6.17 0 0 1 .859-2.147c.406-.599.912-1.148 1.521-1.549.609-.4 1.268-.75 2.029-.95.762-.201 1.523-.352 2.386-.354.965-.001 1.879.147 2.692.445.863.298 1.575.696 2.185 1.294a6.074 6.074 0 0 1 1.475 2.043c.357.797.562 1.745.563 2.792a7.04 7.04 0 0 1-.554 2.794 6.073 6.073 0 0 1-1.469 2.048c-.608.55-1.369 1-2.181 1.3-.862.301-1.725.452-2.69.454-.914.001-1.726-.097-2.539-.345a5.907 5.907 0 0 1-2.083-1.095c-.611-.497-1.119-1.045-1.526-1.743-.408-.698-.663-1.495-.766-2.393l-1.929.003.008 5.288-2.843.004-.02-12.47 2.843-.005v-.1ZM107.3 13.3c.002 1.297.359 2.294 1.02 3.041.712.747 1.728 1.095 3.048 1.093 1.371-.003 2.386-.353 3.045-1.103.709-.749 1.012-1.747 1.01-3.044-.002-1.297-.359-2.294-1.02-3.042-.712-.747-1.728-1.094-3.048-1.092-1.371.002-2.386.353-3.044 1.102-.659.75-1.013 1.798-1.011 3.045ZM131.363 11.366c-.509-.698-1.068-1.196-1.729-1.544-.661-.348-1.524-.546-2.539-.545-.66.002-1.219.102-1.726.303-.508.2-.964.45-1.319.8-.355.35-.659.799-.861 1.248a4.33 4.33 0 0 0-.302 1.647c.001.598.103 1.147.307 1.646.204.498.509.897.865 1.245.356.349.814.648 1.322.796.508.2 1.066.298 1.726.297 1.016-.002 1.828-.203 2.538-.553.659-.35 1.217-.9 1.724-1.549l2.236 1.244c-.659 1.098-1.52 1.947-2.586 2.498-1.065.55-2.334.852-3.857.854a8.925 8.925 0 0 1-2.844-.444 6.546 6.546 0 0 1-2.236-1.294 6.09 6.09 0 0 1-1.476-2.043 6.8 6.8 0 0 1-.562-2.742c-.002-.998.2-1.896.554-2.745a5.575 5.575 0 0 1 1.52-2.048c.659-.55 1.369-1 2.231-1.3a8.4 8.4 0 0 1 2.792-.454c1.473-.002 2.742.295 3.86.842 1.067.547 1.932 1.394 2.593 2.49l-2.231 1.35ZM137.361 15.846c.558-.001 1.066.198 1.422.596.407.399.611.847.612 1.396.001.549-.202.998-.607 1.398-.406.35-.862.55-1.421.55-.558.002-1.066-.197-1.422-.546-.407-.348-.611-.797-.612-1.396-.001-.548.202-1.047.607-1.397.406-.45.862-.6 1.421-.601ZM61.838 31.53c.711-.001 1.066-.35 1.065-1-.001-.498-.255-.847-.814-1.095-.56-.249-1.372-.347-2.489-.346-.558.001-1.066.002-1.523.053-.457.05-.863.1-1.218.201-.406.1-.761.25-1.116.401-.355.15-.761.4-1.167.6l-1.222-1.993c1.015-.7 2.03-1.15 2.993-1.401.965-.251 2.03-.353 3.199-.355 1.015-.001 1.929.097 2.742.245.812.149 1.524.447 2.032.845.966.647 1.424 1.544 1.426 2.742 0 .399-.1.798-.252 1.097-.152.35-.406.6-.71.85 1.169.596 1.78 1.593 1.782 2.99.001.648-.15 1.197-.454 1.697-.304.499-.71.948-1.267 1.398-.609.45-1.37.75-2.233.952-.913.2-1.928.302-3.046.304-.71 0-1.32-.048-1.929-.097-.61-.049-1.168-.198-1.676-.346a8.516 8.516 0 0 1-1.575-.596 12.14 12.14 0 0 1-1.524-.896l1.316-2.097c.813.497 1.677.845 2.54 1.143.915.248 1.88.396 2.997.394 1.218-.002 2.183-.153 2.944-.453.71-.3 1.065-.8 1.064-1.499-.001-.399-.154-.748-.408-.947-.254-.199-.762-.298-1.473-.297l-5.077.008-.004-2.494 5.077-.008ZM82.557 33.093c.001.998-.2 1.846-.555 2.695-.404.799-.911 1.498-1.52 2.048-.659.55-1.42 1-2.282 1.35-.863.3-1.776.502-2.74.503-.966.002-1.88-.146-2.743-.494a6.561 6.561 0 0 1-2.287-1.343 5.584 5.584 0 0 1-1.527-2.043c-.407-.798-.56-1.695-.562-2.693-.002-.998.2-1.846.554-2.695.405-.798.911-1.498 1.52-2.047.659-.55 1.42-1 2.282-1.35.863-.301 1.776-.502 2.741-.504.965-.002 1.879.147 2.742.495a6.563 6.563 0 0 1 2.287 1.343 5.585 5.585 0 0 1 1.527 2.043 6.56 6.56 0 0 1 .563 2.692Zm-11.373.018c0 .649.103 1.247.358 1.746.204.498.51.947.916 1.295.356.349.813.648 1.321.796a4.543 4.543 0 0 0 1.676.297 4.545 4.545 0 0 0 1.675-.302c.508-.2.964-.45 1.319-.8.355-.35.659-.8.912-1.299a4.66 4.66 0 0 0 .352-1.746c0-.649-.103-1.247-.358-1.745a3.374 3.374 0 0 0-.916-1.296 3.224 3.224 0 0 0-1.321-.796 4.543 4.543 0 0 0-1.676-.297 4.544 4.544 0 0 0-1.675.302c-.507.2-.964.45-1.319.8-.355.35-.658.8-.912 1.299-.253.5-.353 1.098-.352 1.747ZM97.878 26.784l.02 12.47-2.894.005-.016-9.927-4.874.008-1.208 6.786c-.2 1.098-.657 1.947-1.316 2.447s-1.522.75-2.588.752l-1.523.002-.004-2.594 1.37-.002c.711 0 1.117-.3 1.218-.95l1.66-8.931 10.155-.017v-.05ZM114.236 33.043c.002.998-.2 1.846-.554 2.694-.405.8-.911 1.498-1.52 2.048-.659.55-1.42 1-2.282 1.35-.863.301-1.777.502-2.741.504-.965.001-1.879-.147-2.743-.495a6.57 6.57 0 0 1-2.287-1.343 5.597 5.597 0 0 1-1.526-2.043c-.407-.797-.561-1.695-.563-2.693-.001-.997.2-1.845.554-2.694.405-.799.912-1.498 1.52-2.048.659-.55 1.42-1 2.283-1.35.863-.301 1.776-.502 2.741-.503.964-.002 1.879.146 2.742.494a6.56 6.56 0 0 1 2.287 1.343 5.575 5.575 0 0 1 1.526 2.043c.408.797.562 1.695.563 2.693Zm-11.373.018c.002.648.104 1.247.359 1.745.204.499.509.947.916 1.296.356.349.813.647 1.321.796a4.544 4.544 0 0 0 1.676.296c.609 0 1.167-.101 1.675-.302.507-.2.964-.45 1.319-.8.354-.35.658-.799.911-1.298.203-.5.354-1.098.353-1.747-.001-.648-.103-1.247-.358-1.745a3.373 3.373 0 0 0-.916-1.296 3.223 3.223 0 0 0-1.321-.796 4.544 4.544 0 0 0-1.676-.296 4.538 4.538 0 0 0-1.675.302c-.508.2-.964.45-1.319.8-.355.35-.659.8-.912 1.299a4.664 4.664 0 0 0-.353 1.746ZM128.646 26.734l.004 2.544-5.179.009.016 9.927-2.894.004-.016-9.927-5.178.009-.004-2.544 13.251-.022ZM144.09 32.995c.001.998-.2 1.846-.554 2.695-.405.799-.912 1.498-1.52 2.047-.659.55-1.42 1-2.283 1.351-.862.3-1.776.502-2.741.503-.964.002-1.878-.147-2.742-.494a6.559 6.559 0 0 1-2.287-1.343 5.576 5.576 0 0 1-1.526-2.043c-.408-.798-.562-1.695-.563-2.693-.002-.998.2-1.846.554-2.695.405-.799.911-1.498 1.52-2.047.659-.55 1.42-1 2.282-1.35.863-.302 1.777-.503 2.741-.504.965-.002 1.879.146 2.743.494a6.57 6.57 0 0 1 2.287 1.343 5.599 5.599 0 0 1 1.526 2.043 6.56 6.56 0 0 1 .563 2.693Zm-11.373.018c.001.649.104 1.247.358 1.746.204.498.509.947.916 1.295.356.349.813.647 1.321.796a4.544 4.544 0 0 0 1.676.297 4.538 4.538 0 0 0 1.675-.302c.508-.2.964-.45 1.319-.8.355-.35.659-.8.912-1.299.202-.499.354-1.098.353-1.746-.001-.649-.104-1.247-.359-1.746a3.363 3.363 0 0 0-.916-1.295 3.223 3.223 0 0 0-1.321-.796 4.544 4.544 0 0 0-1.676-.297c-.609.001-1.167.102-1.675.302-.507.2-.964.45-1.319.8-.354.35-.658.8-.911 1.299-.253.5-.354 1.098-.353 1.746ZM149.057 26.702l.014 8.68 7.551-8.692 2.792-.005.02 12.471-2.894.005-.013-8.58-7.501 8.642-2.792.004-.02-12.52 2.843-.005Zm7.408-2.756c-.71.65-1.318 1.05-1.927 1.25a6.01 6.01 0 0 1-1.929.303 6.241 6.241 0 0 1-1.93-.296c-.609-.199-1.219-.597-1.931-1.244l1.368-1.499c.356.299.712.498 1.068.647.355.149.812.198 1.371.197.558 0 1.015-.051 1.37-.202a4.06 4.06 0 0 0 1.065-.65l1.475 1.494ZM179.374 30.993c-.508-.697-1.068-1.195-1.728-1.543-.661-.348-1.524-.546-2.54-.545-.66.001-1.218.102-1.725.302-.508.2-.964.45-1.319.8-.355.35-.659.8-.861 1.249a4.311 4.311 0 0 0-.302 1.647c.001.598.103 1.147.307 1.645.204.499.509.897.865 1.246s.813.647 1.321.796c.508.199 1.067.298 1.727.296 1.015-.001 1.827-.202 2.538-.552.659-.35 1.217-.9 1.723-1.55l2.236 1.244c-.658 1.099-1.52 1.948-2.585 2.498-1.065.55-2.334.852-3.857.855a8.922 8.922 0 0 1-2.844-.445 6.536 6.536 0 0 1-2.236-1.293 6.09 6.09 0 0 1-1.476-2.043 6.818 6.818 0 0 1-.563-2.743 6.99 6.99 0 0 1 .554-2.744 5.597 5.597 0 0 1 1.52-2.048c.659-.55 1.37-1 2.232-1.3a8.4 8.4 0 0 1 2.792-.454c1.472-.002 2.742.295 3.86.842 1.067.547 1.931 1.394 2.593 2.49l-2.232 1.35ZM195.156 26.628l.004 2.544-8.682.014.004 2.345 7.768-.013.004 2.544-7.768.013.004 2.494 8.986-.014.005 2.594-11.83.019-.02-12.521 11.525-.019ZM206.182 31.3c.711-.001 1.066-.351 1.065-1-.001-.498-.256-.847-.814-1.096-.559-.248-1.372-.347-2.489-.345-.558.001-1.066.002-1.523.052-.457.051-.863.101-1.218.202-.406.1-.761.25-1.116.4-.356.15-.761.401-1.167.601l-1.222-2.043c1.014-.7 2.029-1.15 2.993-1.402.965-.25 2.031-.352 3.198-.354 1.016-.002 1.93.097 2.742.245.813.149 1.524.447 2.033.845.965.647 1.424 1.544 1.426 2.741 0 .4-.101.799-.253 1.098-.151.35-.405.6-.709.85 1.169.596 1.78 1.593 1.782 2.99.001.648-.151 1.197-.454 1.696-.304.5-.71.95-1.268 1.399-.608.45-1.369.75-2.232.951-.914.201-1.929.303-3.046.304-.711.002-1.32-.047-1.929-.096-.61-.05-1.168-.198-1.676-.347a8.493 8.493 0 0 1-1.575-.596 12.207 12.207 0 0 1-1.525-.895l1.317-2.097c.813.497 1.677.845 2.54 1.143.915.248 1.88.396 2.997.394 1.218-.002 2.183-.153 2.944-.454.71-.3 1.065-.8 1.063-1.498 0-.399-.153-.748-.407-.947-.254-.2-.762-.298-1.473-.297l-5.077.008-.004-2.494 5.077-.008v.05ZM226.898 32.863c.002.998-.2 1.846-.554 2.695-.405.798-.911 1.498-1.52 2.047-.659.55-1.42 1-2.282 1.35-.863.302-1.776.503-2.741.504-.965.002-1.879-.147-2.743-.494a6.565 6.565 0 0 1-2.286-1.344 5.59 5.59 0 0 1-1.527-2.042c-.407-.798-.561-1.696-.563-2.693-.001-.998.201-1.846.555-2.695.404-.799.911-1.498 1.519-2.048.66-.55 1.42-1 2.283-1.35.863-.3 1.776-.502 2.741-.503.965-.002 1.879.146 2.742.494a6.559 6.559 0 0 1 2.287 1.343 5.59 5.59 0 0 1 1.527 2.043 6.56 6.56 0 0 1 .562 2.693Zm-11.372.018c.001.649.103 1.247.358 1.746.204.498.509.947.916 1.295.356.349.813.647 1.321.796a4.546 4.546 0 0 0 1.676.297 4.544 4.544 0 0 0 1.675-.302c.507-.2.964-.45 1.319-.8.355-.35.658-.8.912-1.299.202-.5.353-1.098.352-1.746-.001-.649-.103-1.247-.358-1.746a3.373 3.373 0 0 0-.916-1.295 3.224 3.224 0 0 0-1.321-.796 4.544 4.544 0 0 0-1.676-.297 4.542 4.542 0 0 0-1.675.302c-.508.2-.964.45-1.319.8-.355.35-.659.8-.912 1.299-.253.499-.353 1.098-.352 1.746ZM231.865 26.57l.007 4.739 7.159-.012-.008-4.739 2.894-.004.02 12.47-2.894.005-.008-5.188-7.159.012.009 5.188-2.844.004-.02-12.47 2.844-.005Z" fill="#fff"/><path d="M39.314 43.19c-7.67-2.333-11.692-9.26-9.163-15.3 6.754.936 10.572 7.315 9.163 15.3ZM22.39.964c3.106 5.333 2.607 11.27-1.194 15.516-.71.75-2.079 1.75-2.587 1.55-.914-.497-1.627-1.643-1.882-2.69-1.685-5.983.135-10.626 5.663-14.376ZM9.004 43.836c-.263-5.736 7.799-12.833 13.64-10.946 1.127 6.283-6.124 12.131-13.64 10.946ZM27.142 19.613c3.037-6.04 11.868-7.9 17.561-3.769-3.747 5.892-11.766 7.7-17.56 3.77ZM.031 19.906c6.596-2.954 14.826.425 16.917 6.059-4.97 3.998-13.453 1.019-16.917-6.059Z" fill="#FAB529"/></g><defs><clipPath id="a"><path fill="#fff" transform="rotate(-.091 626.683 .5)" d="M0 0h241.875v43H0z"/></clipPath></defs></svg>