<svg width="69" height="41" viewBox="0 0 69 41" fill="none" xmlns="http://www.w3.org/2000/svg">
<path d="M56.598 23.3637C55.5148 21.9987 55.8247 21.3914 56.598 20.1713C56.6119 20.1574 65.5595 7.825 66.4808 3.64364C66.9387 2.11986 66.4808 1 64.2669 1H56.9414C55.0765 1 54.2166 1.96107 53.7559 3.03636C53.7559 3.03636 50.0262 11.9451 44.7497 17.7199C43.0467 19.3885 42.2595 19.9234 41.3298 19.9234C40.872 19.9234 40.1601 19.3885 40.1601 17.8647V3.64364C40.1601 1.81621 39.638 1 38.0942 1H26.5753C25.4056 1 24.7104 1.85243 24.7104 2.64636C24.7104 4.37907 27.3487 4.77743 27.6223 9.65243V20.2298C27.6223 22.5475 27.2007 22.9737 26.2655 22.9737C23.7752 22.9737 17.731 14.0288 14.1492 3.79129C13.4261 1.80507 12.7198 1.00279 10.841 1.00279H3.51259C1.42156 1.00279 1 1.96386 1 3.03914C1 4.939 3.49025 14.3854 12.5802 26.8654C18.6384 35.3841 27.17 40 34.9311 40C39.5961 40 40.1656 38.9749 40.1656 37.2115C40.1656 29.0716 39.7441 28.3028 42.0808 28.3028C43.164 28.3028 45.0289 28.8376 49.384 32.9466C54.3618 37.8188 55.1798 40 57.9659 40H65.2915C67.3798 40 68.4378 38.9749 67.8292 36.9524C66.4361 32.6986 57.0223 23.9487 56.598 23.3637Z" stroke="#FAB529" stroke-width="2"/>
</svg>
